<svg width="127" height="54" viewBox="0 0 127 54" fill="none" xmlns="http://www.w3.org/2000/svg">
<g clip-path="url(#clip0_1_330)">
<path d="M35.5044 20.7371C35.6493 19.8009 35.7247 18.8553 35.7297 17.908C35.7297 13.2389 33.8758 8.76091 30.5754 5.4582C27.2751 2.15548 22.7983 0.298362 18.1293 0.295044H0.516266V17.908C0.517551 20.849 1.25895 23.7424 2.67216 26.3216C4.08537 28.9009 6.12494 31.0829 8.60297 32.6669C8.44767 33.6062 8.36813 34.5565 8.36513 35.5085V52.8211C8.36509 52.86 8.37293 52.8984 8.38818 52.9342C8.40342 52.97 8.42576 53.0023 8.45383 53.0292C8.48191 53.0561 8.51514 53.0771 8.55153 53.0908C8.58792 53.1045 8.62671 53.1107 8.66556 53.109H25.9281C29.7259 53.1104 33.4222 51.8833 36.4652 49.611C39.5083 47.3387 41.7347 44.143 42.812 40.5013C43.8893 36.8595 43.7598 32.9669 42.4427 29.4048C41.1257 25.8427 38.6918 22.8021 35.5044 20.7371ZM4.44696 17.908V4.22571H18.1293C21.7548 4.23234 25.2299 5.67642 27.7924 8.24127C30.3549 10.8061 31.7957 14.2824 31.799 17.908C31.799 18.2335 31.799 18.5715 31.799 18.897C27.57 17.419 22.937 17.6057 18.8406 19.4191C14.7441 21.2325 11.4912 24.5368 9.74212 28.6611C8.10683 27.3856 6.78351 25.7544 5.87254 23.8912C4.96158 22.0281 4.4869 19.9819 4.48451 17.908M30.9353 22.7776C30.2923 24.464 29.3217 26.0065 28.0795 27.3159C26.8373 28.6253 25.3481 29.6757 23.6978 30.4066C22.0476 31.1374 20.2689 31.5343 18.4645 31.5741C16.66 31.614 14.8656 31.2962 13.1846 30.639C13.8276 28.9525 14.7982 27.4101 16.0404 26.1007C17.2826 24.7913 18.7718 23.7408 20.4221 23.01C22.0723 22.2791 23.851 21.8823 25.6554 21.8424C27.4599 21.8025 29.2543 22.1203 30.9353 22.7776ZM25.9281 49.1783H12.2457V35.5085C12.2457 35.1705 12.2457 34.8451 12.2457 34.5196C16.4748 35.9975 21.1078 35.8108 25.2042 33.9974C29.3007 32.184 32.5536 28.8797 34.3027 24.7554C36.5458 26.5065 38.186 28.9145 38.9941 31.6431C39.8021 34.3716 39.7376 37.2845 38.8097 39.9746C37.8817 42.6647 36.1366 44.9978 33.8181 46.6479C31.4997 48.298 28.7237 49.1827 25.878 49.1783" fill="#F9FAFB"/>
<path d="M64.1459 43.1696C63.8003 43.7343 63.2825 44.1731 62.6688 44.4214C63.1138 44.5402 63.5366 44.7305 63.9206 44.9847C64.2374 45.2153 64.5162 45.4941 64.7468 45.8109C64.9571 46.1085 65.1178 46.4383 65.2225 46.7873C65.3221 47.129 65.3727 47.483 65.3727 47.8389C65.3948 48.4964 65.2437 49.1483 64.9346 49.7291C64.6515 50.229 64.2575 50.6572 63.7829 50.9809C63.2862 51.3146 62.7357 51.5602 62.1555 51.7069C61.5407 51.8558 60.9104 51.9315 60.2778 51.9323H54.7323V37.937H59.5518C60.316 37.9265 61.0781 38.0192 61.8176 38.2124C62.3871 38.3643 62.9225 38.6235 63.3948 38.976C63.7895 39.2666 64.1075 39.649 64.3212 40.0901C64.5223 40.5212 64.6249 40.9915 64.6216 41.4671C64.6238 42.0677 64.4591 42.6571 64.1459 43.1696ZM61.442 40.666C60.8232 40.3126 60.1117 40.1554 59.4016 40.2153H57.2234V43.5451H59.4016C60.0987 43.5977 60.7967 43.4547 61.417 43.1321C61.6218 42.9965 61.7874 42.8095 61.8973 42.5898C62.0071 42.3701 62.0574 42.1255 62.0429 41.8803C62.046 41.6483 61.9929 41.419 61.8883 41.2119C61.7837 41.0049 61.6306 40.8262 61.442 40.691M62.5812 46.8624C62.4447 46.6178 62.2404 46.4178 61.9928 46.2866C61.704 46.1353 61.3901 46.0378 61.0665 45.9987C60.6524 45.934 60.2337 45.9047 59.8147 45.9111H57.2234V49.6665H59.9273C60.6757 49.7217 61.4249 49.5702 62.093 49.2284C62.3266 49.0778 62.5151 48.8668 62.6386 48.6178C62.762 48.3688 62.8157 48.0909 62.794 47.8138C62.8051 47.4986 62.7408 47.1853 62.6062 46.9" fill="#F9FAFB"/>
<path d="M75.9129 49.7291C76.288 49.8322 76.6756 49.8827 77.0646 49.8793C77.2942 49.8966 77.525 49.8642 77.741 49.7842C77.957 49.7043 78.1533 49.5788 78.3164 49.4161C78.6632 48.9724 78.8247 48.4116 78.767 47.8513V37.9871H81.2706V48.0016C81.2842 48.6622 81.1955 49.3209 81.0078 49.9544C80.8619 50.4455 80.6097 50.8985 80.2692 51.2813C79.949 51.6239 79.5491 51.8819 79.105 52.0324C78.6089 52.1983 78.0883 52.2787 77.5653 52.2702C76.8693 52.2819 76.1749 52.2019 75.4998 52.0324C74.9914 51.9078 74.4997 51.7229 74.0352 51.4816L74.949 49.341C75.2613 49.5202 75.5931 49.663 75.9379 49.7666" fill="#F9FAFB"/>
<path d="M96.2297 37.9371C97.3267 37.927 98.4192 38.0789 99.4719 38.3877C100.409 38.632 101.289 39.0572 102.063 39.6395C102.793 40.2227 103.376 40.9687 103.766 41.8177C104.193 42.7648 104.403 43.7957 104.379 44.8345C104.393 45.87 104.193 46.8971 103.791 47.8514C103.41 48.7096 102.841 49.4712 102.126 50.0796C101.391 50.7008 100.54 51.1689 99.6221 51.4566C98.568 51.781 97.4703 51.9414 96.3674 51.9323H92.612V37.9371H96.2297ZM98.4955 49.4037C99.1305 49.259 99.7278 48.9817 100.248 48.59C100.738 48.1947 101.122 47.6825 101.362 47.1003C101.642 46.3961 101.774 45.642 101.75 44.8846C101.775 44.1625 101.638 43.4441 101.35 42.7816C101.102 42.2176 100.719 41.7232 100.236 41.342C99.7237 40.9489 99.1353 40.6675 98.508 40.5158C97.7736 40.3445 97.0214 40.2605 96.2673 40.2654H95.0155V49.654H96.1797C96.959 49.6664 97.7368 49.5823 98.4955 49.4037Z" fill="#F9FAFB"/>
<path d="M123.369 51.9824L122.117 48.6651H116.309L115.132 51.9824H112.516L117.711 37.9371H120.74L125.935 51.9824H123.369ZM121.341 46.3368L119.263 40.5033L117.185 46.3368H121.341Z" fill="#F9FAFB"/>
<path d="M54.8199 27.7347H57.336V9.04517L54.8199 8.51941V27.7347Z" fill="#F9FAFB"/>
<path d="M120.077 27.7347C123.657 27.7347 126.06 25.5691 126.06 21.4757C126.004 19.4428 125.697 17.4248 125.147 15.467L122.768 16.0804C123.229 17.9473 123.506 19.8551 123.594 21.7761C123.594 23.6789 122.48 24.5301 120.189 24.5301C117.523 24.5301 116.434 23.8792 116.109 22.1266H118.525L118.725 18.8344H115.558C113.855 18.8344 113.355 18.6341 110.838 17.1945C109.136 16.2306 107.458 14.9412 104.579 14.9412C103.563 14.9155 102.552 15.1091 101.617 15.5087C100.682 15.9083 99.8433 16.5046 99.159 17.2571L100.211 19.3351C101.42 18.5099 102.852 18.0732 104.316 18.0833C106.283 18.1991 108.19 18.8059 109.862 19.8483C110.538 20.1988 111.114 20.4867 111.627 20.7246C105.23 24.2797 101.613 24.5676 98.1826 24.5676H78.1536C75.8628 24.5676 75.2494 23.6037 74.1603 21.3129L69.7039 12.012L67.2002 13.1511L71.4814 22.1892C71.3062 23.8917 69.5787 24.8055 67.025 24.8055C64.4713 24.8055 62.5936 24.2797 62.7438 21.05L60.5406 21.1752C60.3403 24.6678 61.0413 27.9475 66.6995 27.9475C69.9292 27.9475 71.9822 26.6331 72.7708 24.2547C73.1501 25.3185 73.8666 26.2292 74.8111 26.8484C75.7556 27.4675 76.8766 27.7612 78.0034 27.6847H98.0324C102.952 27.6847 106.795 26.6832 113.355 22.1141H114.318C114.469 25.5441 115.57 27.6847 120.014 27.6847L120.077 27.7347Z" fill="#F9FAFB"/>
<path d="M111.101 27.5595C110.783 27.5546 110.47 27.6446 110.203 27.8182C109.936 27.9918 109.727 28.241 109.602 28.534C109.477 28.8271 109.443 29.1506 109.503 29.4634C109.563 29.7762 109.715 30.064 109.939 30.2901C110.163 30.5162 110.45 30.6704 110.762 30.7328C111.074 30.7953 111.398 30.7633 111.692 30.6408C111.986 30.5184 112.237 30.3111 112.413 30.0455C112.589 29.7798 112.681 29.4678 112.679 29.1493C112.679 28.7298 112.513 28.3273 112.217 28.0296C111.922 27.7318 111.521 27.5628 111.101 27.5595Z" fill="#F9FAFB"/>
<path d="M123.181 29.8754C122.863 29.8729 122.552 29.9651 122.286 30.1402C122.021 30.3153 121.814 30.5654 121.691 30.8587C121.568 31.152 121.535 31.4752 121.597 31.7872C121.658 32.0992 121.811 32.3858 122.036 32.6107C122.261 32.8355 122.547 32.9884 122.859 33.0498C123.171 33.1112 123.495 33.0784 123.788 32.9556C124.081 32.8328 124.331 32.6255 124.506 32.3601C124.681 32.0947 124.774 31.7832 124.771 31.4652C124.771 31.0436 124.604 30.6392 124.306 30.341C124.007 30.0429 123.603 29.8754 123.181 29.8754Z" fill="#F9FAFB"/>
</g>
<defs>
<clipPath id="clip0_1_330">
<rect width="125.544" height="52.8139" fill="white" transform="translate(0.516266 0.295044)"/>
</clipPath>
</defs>
</svg>
