<svg width="127" height="53" viewBox="0 0 127 53" fill="none" xmlns="http://www.w3.org/2000/svg">
<g clip-path="url(#clip0_1_233)">
<path d="M35.5043 20.4758C35.6493 19.5396 35.7246 18.594 35.7296 17.6467C35.7296 12.9776 33.8757 8.49956 30.5753 5.19684C27.275 1.89413 22.7983 0.0370099 18.1292 0.0336914H0.516174V17.6467C0.51746 20.5877 1.25886 23.4811 2.67207 26.0603C4.08528 28.6395 6.12485 30.8216 8.60288 32.4055C8.44758 33.3448 8.36804 34.2951 8.36504 35.2472V52.5597C8.365 52.5986 8.37284 52.6371 8.38809 52.6729C8.40333 52.7086 8.42567 52.7409 8.45374 52.7678C8.48182 52.7947 8.51505 52.8157 8.55144 52.8294C8.58783 52.8431 8.62662 52.8493 8.66547 52.8476H25.928C29.7258 52.849 33.4221 51.622 36.4652 49.3497C39.5082 47.0773 41.7346 43.8817 42.8119 40.2399C43.8892 36.5981 43.7597 32.7056 42.4426 29.1434C41.1256 25.5813 38.6917 22.5407 35.5043 20.4758ZM4.44686 17.6467V3.96436H18.1292C21.7548 3.97099 25.2298 5.41506 27.7923 7.97992C30.3548 10.5448 31.7956 14.0211 31.799 17.6467C31.799 17.9721 31.799 18.3101 31.799 18.6356C27.5699 17.1577 22.9369 17.3444 18.8405 19.1578C14.744 20.9712 11.4911 24.2754 9.74203 28.3998C8.10674 27.1242 6.78342 25.493 5.87245 23.6299C4.96149 21.7667 4.4868 19.7206 4.48442 17.6467M30.9352 22.5162C30.2922 24.2027 29.3216 25.7451 28.0794 27.0545C26.8372 28.3639 25.348 29.4143 23.6978 30.1452C22.0475 30.8761 20.2688 31.2729 18.4644 31.3128C16.6599 31.3527 14.8655 31.0348 13.1845 30.3776C13.8275 28.6911 14.7981 27.1487 16.0403 25.8393C17.2825 24.5299 18.7717 23.4795 20.422 22.7486C22.0722 22.0177 23.8509 21.6209 25.6553 21.581C27.4598 21.5411 29.2542 21.859 30.9352 22.5162ZM25.928 48.9169H12.2457V35.2472C12.2457 34.9092 12.2457 34.5837 12.2457 34.2582C16.4747 35.7361 21.1077 35.5494 25.2041 33.736C29.3006 31.9226 32.5535 28.6184 34.3026 24.4941C36.5458 26.2451 38.1859 28.6531 38.994 31.3817C39.802 34.1103 39.7375 37.0231 38.8096 39.7132C37.8816 42.4034 36.1365 44.7365 33.818 46.3866C31.4996 48.0367 28.7236 48.9213 25.8779 48.9169" fill="url(#paint0_linear_1_233)"/>
<path d="M64.1459 42.9082C63.8002 43.4729 63.2824 43.9117 62.6687 44.16C63.1137 44.2788 63.5365 44.469 63.9205 44.7233C64.2374 44.9539 64.5161 45.2327 64.7467 45.5495C64.9571 45.8471 65.1177 46.1769 65.2224 46.5259C65.3221 46.8675 65.3726 47.2216 65.3726 47.5774C65.3947 48.235 65.2436 48.8869 64.9345 49.4677C64.6514 49.9676 64.2574 50.3958 63.7828 50.7195C63.2861 51.0532 62.7356 51.2988 62.1555 51.4455C61.5406 51.5944 60.9104 51.6701 60.2778 51.6709H54.7322V37.6756H59.5517C60.3159 37.6651 61.0781 37.7578 61.8175 37.951C62.3871 38.1029 62.9224 38.362 63.3948 38.7146C63.7895 39.0052 64.1074 39.3876 64.3211 39.8287C64.5222 40.2597 64.6248 40.7301 64.6216 41.2057C64.6237 41.8063 64.4591 42.3957 64.1459 42.9082ZM61.4419 40.4046C60.8231 40.0511 60.1116 39.894 59.4015 39.9539H57.2233V43.2837H59.4015C60.0987 43.3363 60.7967 43.1933 61.4169 42.8707C61.6218 42.7351 61.7874 42.5481 61.8972 42.3284C62.0071 42.1087 62.0573 41.864 62.0428 41.6188C62.0459 41.3869 61.9929 41.1576 61.8882 40.9505C61.7836 40.7435 61.6305 40.5647 61.4419 40.4296M62.5811 46.601C62.4446 46.3563 62.2403 46.1564 61.9928 46.0252C61.704 45.8739 61.3901 45.7764 61.0664 45.7373C60.6524 45.6726 60.2336 45.6433 59.8146 45.6497H57.2233V49.4051H59.9273C60.6757 49.4603 61.4248 49.3088 62.0929 48.967C62.3265 48.8164 62.5151 48.6054 62.6385 48.3564C62.7619 48.1073 62.8156 47.8295 62.7939 47.5524C62.8051 47.2372 62.7407 46.9239 62.6061 46.6386" fill="url(#paint1_linear_1_233)"/>
<path d="M75.9128 49.4678C76.2879 49.5709 76.6755 49.6215 77.0645 49.618C77.2942 49.6354 77.5249 49.6029 77.7409 49.523C77.9569 49.4431 78.1532 49.3175 78.3163 49.1549C78.6632 48.7112 78.8247 48.1504 78.767 47.5901V37.7258H81.2706V47.7403C81.2841 48.4009 81.1955 49.0597 81.0077 49.6932C80.8618 50.1843 80.6097 50.6373 80.2691 51.0201C79.949 51.3626 79.549 51.6207 79.1049 51.7712C78.6089 51.9371 78.0882 52.0175 77.5652 52.009C76.8693 52.0206 76.1748 51.9407 75.4997 51.7712C74.9913 51.6465 74.4996 51.4616 74.0351 51.2204L74.9489 49.0798C75.2612 49.259 75.593 49.4018 75.9379 49.5054" fill="url(#paint2_linear_1_233)"/>
<path d="M96.2297 37.6755C97.3267 37.6655 98.4192 37.8173 99.4719 38.1262C100.409 38.3704 101.289 38.7957 102.063 39.378C102.793 39.9612 103.376 40.7072 103.766 41.5561C104.193 42.5032 104.403 43.5342 104.379 44.573C104.393 45.6084 104.193 46.6356 103.791 47.5899C103.41 48.4481 102.841 49.2096 102.126 49.8181C101.391 50.4392 100.54 50.9074 99.6221 51.1951C98.568 51.5195 97.4702 51.6799 96.3674 51.6708H92.6119V37.6755H96.2297ZM98.4955 49.1421C99.1305 48.9975 99.7277 48.7202 100.248 48.3285C100.738 47.9332 101.122 47.4209 101.362 46.8388C101.642 46.1346 101.774 45.3804 101.75 44.6231C101.775 43.901 101.638 43.1826 101.35 42.5201C101.102 41.9561 100.719 41.4617 100.235 41.0804C99.7237 40.6874 99.1352 40.406 98.508 40.2543C97.7735 40.083 97.0214 39.999 96.2672 40.0039H95.0154V49.3925H96.1796C96.9589 49.4049 97.7368 49.3207 98.4955 49.1421Z" fill="url(#paint3_linear_1_233)"/>
<path d="M123.369 51.7209L122.117 48.4036H116.309L115.132 51.7209H112.516L117.711 37.6755H120.74L125.935 51.7209H123.369ZM121.341 46.0752L119.263 40.2418L117.185 46.0752H121.341Z" fill="url(#paint4_linear_1_233)"/>
<path d="M54.8198 27.4734H57.3359V8.78382L54.8198 8.25806V27.4734Z" fill="url(#paint5_linear_1_233)"/>
<path d="M120.077 27.4732C123.657 27.4732 126.06 25.3076 126.06 21.2142C126.004 19.1814 125.697 17.1633 125.147 15.2055L122.768 15.8189C123.229 17.6858 123.506 19.5936 123.594 21.5146C123.594 23.4174 122.48 24.2686 120.189 24.2686C117.523 24.2686 116.434 23.6177 116.108 21.8652H118.524L118.725 18.5729H115.558C113.855 18.5729 113.354 18.3726 110.838 16.933C109.136 15.9691 107.458 14.6797 104.579 14.6797C103.563 14.6541 102.552 14.8477 101.617 15.2473C100.682 15.6469 99.8433 16.2431 99.1589 16.9956L100.21 19.0736C101.42 18.2484 102.852 17.8117 104.316 17.8218C106.283 17.9376 108.19 18.5444 109.862 19.5868C110.538 19.9374 111.114 20.2252 111.627 20.4631C105.23 24.0182 101.612 24.3062 98.1825 24.3062H78.1535C75.8627 24.3062 75.2493 23.3423 74.1602 21.0514L69.7038 11.7505L67.2002 12.8896L71.4814 21.9277C71.3061 23.6302 69.5786 24.544 67.0249 24.544C64.4712 24.544 62.5935 24.0182 62.7437 20.7886L60.5405 20.9138C60.3402 24.4063 61.0413 27.6861 66.6994 27.6861C69.9291 27.6861 71.9821 26.3717 72.7707 23.9932C73.1501 25.057 73.8665 25.9677 74.811 26.5869C75.7556 27.206 76.8765 27.4997 78.0033 27.4232H98.0323C102.952 27.4232 106.795 26.4217 113.354 21.8526H114.318C114.469 25.2826 115.57 27.4232 120.014 27.4232L120.077 27.4732Z" fill="url(#paint6_linear_1_233)"/>
<path d="M111.101 27.298C110.783 27.2931 110.47 27.3831 110.203 27.5567C109.936 27.7303 109.727 27.9795 109.602 28.2725C109.477 28.5656 109.443 28.8892 109.503 29.202C109.563 29.5148 109.714 29.8026 109.939 30.0287C110.163 30.2548 110.45 30.4089 110.762 30.4714C111.074 30.5338 111.398 30.5018 111.692 30.3794C111.986 30.2569 112.237 30.0496 112.413 29.784C112.588 29.5183 112.681 29.2063 112.679 28.8878C112.679 28.4684 112.513 28.0659 112.217 27.7681C111.922 27.4703 111.521 27.3013 111.101 27.298Z" fill="url(#paint7_linear_1_233)"/>
<path d="M123.181 29.6141C122.863 29.6116 122.552 29.7038 122.286 29.8789C122.021 30.054 121.814 30.3041 121.691 30.5974C121.568 30.8907 121.535 31.2139 121.597 31.5259C121.658 31.8378 121.811 32.1245 122.036 32.3493C122.261 32.5741 122.547 32.727 122.859 32.7884C123.171 32.8499 123.494 32.8171 123.788 32.6943C124.081 32.5714 124.331 32.3641 124.506 32.0987C124.681 31.8333 124.774 31.5218 124.771 31.2038C124.771 30.7822 124.604 30.3778 124.305 30.0797C124.007 29.7815 123.603 29.6141 123.181 29.6141Z" fill="url(#paint8_linear_1_233)"/>
</g>
<defs>
<linearGradient id="paint0_linear_1_233" x1="36.2424" y1="25.5301" x2="-4.29537" y2="33.0464" gradientUnits="userSpaceOnUse">
<stop stop-color="#F54374"/>
<stop offset="1" stop-color="#784BB7"/>
</linearGradient>
<linearGradient id="paint1_linear_1_233" x1="63.5706" y1="44.4315" x2="53.4989" y2="46.1748" gradientUnits="userSpaceOnUse">
<stop stop-color="#F54374"/>
<stop offset="1" stop-color="#784BB7"/>
</linearGradient>
<linearGradient id="paint2_linear_1_233" x1="80.0451" y1="44.6217" x2="73.0838" y2="45.4245" gradientUnits="userSpaceOnUse">
<stop stop-color="#F54374"/>
<stop offset="1" stop-color="#784BB7"/>
</linearGradient>
<linearGradient id="paint3_linear_1_233" x1="102.386" y1="44.4318" x2="91.3198" y2="46.5499" gradientUnits="userSpaceOnUse">
<stop stop-color="#F54374"/>
<stop offset="1" stop-color="#784BB7"/>
</linearGradient>
<linearGradient id="paint4_linear_1_233" x1="123.66" y1="44.456" x2="111.171" y2="47.1723" gradientUnits="userSpaceOnUse">
<stop stop-color="#F54374"/>
<stop offset="1" stop-color="#784BB7"/>
</linearGradient>
<linearGradient id="paint5_linear_1_233" x1="56.9094" y1="17.5344" x2="54.459" y2="17.6074" gradientUnits="userSpaceOnUse">
<stop stop-color="#F54374"/>
<stop offset="1" stop-color="#784BB7"/>
</linearGradient>
<linearGradient id="paint6_linear_1_233" x1="114.949" y1="19.4435" x2="80.9044" y2="51.3207" gradientUnits="userSpaceOnUse">
<stop stop-color="#F54374"/>
<stop offset="1" stop-color="#784BB7"/>
</linearGradient>
<linearGradient id="paint7_linear_1_233" x1="112.135" y1="28.8449" x2="109.166" y2="29.5209" gradientUnits="userSpaceOnUse">
<stop stop-color="#F54374"/>
<stop offset="1" stop-color="#784BB7"/>
</linearGradient>
<linearGradient id="paint8_linear_1_233" x1="124.228" y1="31.1611" x2="121.258" y2="31.8371" gradientUnits="userSpaceOnUse">
<stop stop-color="#F54374"/>
<stop offset="1" stop-color="#784BB7"/>
</linearGradient>
<clipPath id="clip0_1_233">
<rect width="125.544" height="52.8139" fill="white" transform="translate(0.516174 0.0336914)"/>
</clipPath>
</defs>
</svg>
